<svg id="Layer_1" data-name="Layer 1" xmlns="http://www.w3.org/2000/svg" viewBox="0 0 334 334"><defs><style>.cls-1{fill:#353535;}</style></defs><title>add-to-fat-icon</title><path class="cls-1" d="M166.88,6.9v13a11.71,11.71,0,0,1,10.71,6.65l32.35,65.36a38,38,0,0,0,28.6,20.72L310.73,123a12,12,0,0,1,6.65,20.37l-52.17,51A38,38,0,0,0,254.33,228l12.42,71.87a11.53,11.53,0,0,1-2.54,9.65,12.27,12.27,0,0,1-9.23,4.39,11.94,11.94,0,0,1-5.56-1.42l-64.59-33.86a37.95,37.95,0,0,0-35.32,0L85,312.67a11.91,11.91,0,0,1-5.58,1.43,12.29,12.29,0,0,1-9.23-4.38,11.51,11.51,0,0,1-2.55-9.63l12.24-71.9a38,38,0,0,0-10.95-33.58L16.65,143.77a11.95,11.95,0,0,1,6.6-20.39L95.4,112.81A37.92,37.92,0,0,0,124,92l32.2-65.44a11.84,11.84,0,0,1,10.73-6.67V6.9m0,0a24.67,24.67,0,0,0-22.39,13.93l-32.2,65.44A24.93,24.93,0,0,1,93.52,99.94L21.36,110.51c-20.46,3-28.6,28.16-13.78,42.58l52.28,50.84A25,25,0,0,1,67.06,226l-12.24,71.9a24.9,24.9,0,0,0,36.24,26.26l64.51-34a24.92,24.92,0,0,1,23.22,0L243.39,324a24.88,24.88,0,0,0,36.17-26.34l-12.42-71.87a25,25,0,0,1,7.16-22.09l52.16-51c14.79-14.45,6.59-39.59-13.88-42.54L240.4,99.77a25,25,0,0,1-18.81-13.63L189.24,20.78A24.65,24.65,0,0,0,166.88,6.9Z"/></svg>