<svg id="Layer_1" data-name="Layer 1" xmlns="http://www.w3.org/2000/svg" viewBox="0 0 334 334"><defs><style>.cls-1{fill:#f2c555;}</style></defs><title>fav-icon copy</title><path class="cls-1" d="M240.4,99.81l72.18,10.4c20.47,2.94,28.67,28.07,13.88,42.51L274.3,203.65a25,25,0,0,0-7.16,22.08l12.42,71.82c3.52,20.37-17.86,35.93-36.17,26.33l-64.6-33.83a25,25,0,0,0-23.22,0l-64.51,34c-18.29,9.64-39.71-5.87-36.24-26.25L67.06,226a24.91,24.91,0,0,0-7.2-22.06L7.58,153.1C-7.24,138.69.9,113.55,21.36,110.55L93.52,100a24.93,24.93,0,0,0,18.77-13.67l32.2-65.39c9.13-18.55,35.58-18.58,44.75-.06l32.35,65.32A25,25,0,0,0,240.4,99.81Z"/></svg>