<?xml version="1.0" encoding="utf-8"?>
<!-- Generator: Adobe Illustrator 23.0.3, SVG Export Plug-In . SVG Version: 6.00 Build 0)  -->
<svg version="1.1" id="Layer_1" xmlns="http://www.w3.org/2000/svg" xmlns:xlink="http://www.w3.org/1999/xlink" x="0px" y="0px"
	 viewBox="0 0 128 160" style="enable-background:new 0 0 128 160;" xml:space="preserve">
<g>
	<g>
		<g>
			<path d="M112,126H16c-1.1,0-2-0.9-2-2V4c0-1.1,0.9-2,2-2h65.9c0.5,0,1,0.2,1.4,0.6l30.1,29.2c0.4,0.4,0.6,0.9,0.6,1.4V124
				C114,125.1,113.1,126,112,126z M18,122h92V34.1L81.1,6H18V122z"/>
			<path d="M112,35.2H81.5c-1.1,0-2-0.9-2-2V4c0-1.1,0.9-2,2-2h0.4c0.5,0,1,0.2,1.4,0.6l30.1,29.2c0.6,0.6,0.8,1.4,0.5,2.2
				C113.5,34.7,112.8,35.2,112,35.2z M83.5,31.2H107L83.5,8.3V31.2z"/>
		</g>
		<g>
			<path d="M93.2,54.1H34.8c-1.1,0-2-0.9-2-2s0.9-2,2-2h58.4c1.1,0,2,0.9,2,2S94.3,54.1,93.2,54.1z"/>
			<path d="M93.2,77.9H34.8c-1.1,0-2-0.9-2-2s0.9-2,2-2h58.4c1.1,0,2,0.9,2,2S94.3,77.9,93.2,77.9z"/>
			<path d="M63.2,30.2H34.8c-1.1,0-2-0.9-2-2s0.9-2,2-2h28.4c1.1,0,2,0.9,2,2S64.3,30.2,63.2,30.2z"/>
			<path d="M93.2,101.8H34.8c-1.1,0-2-0.9-2-2s0.9-2,2-2h58.4c1.1,0,2,0.9,2,2S94.3,101.8,93.2,101.8z"/>
		</g>
	</g>
</g>
</svg>
