<svg id="Layer_1" data-name="Layer 1" xmlns="http://www.w3.org/2000/svg" viewBox="0 0 334 334"><defs><style>.cls-1{fill:#fff;}</style></defs><title>search-icon</title><path class="cls-1" d="M254.5,232.9a138.93,138.93,0,0,0,30.56-86.85C285.45,69.48,222.78,7,146,7S6.52,69.48,6.52,146.05,69.19,285.1,146,285.1a139.85,139.85,0,0,0,87.11-30.48l68.39,68.19a16.44,16.44,0,0,0,10.7,4.19,15.43,15.43,0,0,0,10.7-26.29ZM37.09,146.05C37.09,86.24,86,37.48,146,37.48S254.88,86.24,254.88,146.05,206,254.62,146,254.62,37.09,205.86,37.09,146.05Z"/></svg>